<?xml version="1.0" encoding="UTF-8"?>
<!DOCTYPE svg PUBLIC "-//W3C//DTD SVG 1.1//EN" "http://www.w3.org/Graphics/SVG/1.1/DTD/svg11.dtd">
<!-- Creator: CorelDRAW 2017 -->
<svg xmlns="http://www.w3.org/2000/svg" xml:space="preserve" width="8.4666mm" height="8.4666mm" version="1.1" style="shape-rendering:geometricPrecision; text-rendering:geometricPrecision; image-rendering:optimizeQuality; fill-rule:evenodd; clip-rule:evenodd"
viewBox="0 0 847 847"
 xmlns:xlink="http://www.w3.org/1999/xlink">
 <defs>
  <style type="text/css">
   <![CDATA[
    .fil0 {fill:#F03C2E}
   ]]>
  </style>
 </defs>
 <g id="Camada_x0020_1">
  <metadata id="CorelCorpID_0Corel-Layer"/>
  <path class="fil0" d="M373 73l-6 6c0,6 0,3 -5,8 -5,5 -14,18 -21,18l-6 6c0,6 -20,26 -26,26l-6 6c0,6 -20,26 -26,26l-6 6c0,7 -13,18 -19,23 -5,4 -2,3 -7,4l-6 6c0,6 0,3 -5,8 -3,3 -4,4 -7,6 -3,3 -5,5 -8,8 -5,4 -2,3 -7,4l-6 5 -28 28 -5 5 -28 28 -5 5 -28 28 -5 5 -28 28 -5 5c-4,7 -11,11 -16,18 -2,3 -5,7 -7,11 -2,4 -3,8 -6,12l0 22c0,1 1,1 1,2l2 3c0,1 1,2 2,3 15,29 22,23 30,38l19 19c7,4 10,7 14,14 2,1 1,0 5,3l14 16c7,4 10,7 14,14l19 19c7,4 10,7 14,14l19 19c7,4 10,7 14,14l15 13c4,4 2,2 4,6 7,4 10,7 14,14l19 19c7,4 10,7 14,14l9 7c5,-3 5,-4 9,-8 5,-5 5,-7 10,-7l6 -6c0,-6 3,-7 11,-15 3,-3 4,-4 6,-7 5,-5 2,-5 8,-5l6 -6c0,-5 -1,-2 4,-7 5,-6 15,-19 23,-19l2 -7c-4,-13 -4,-20 -2,-35 7,-17 16,-35 34,-38l0 -208 -6 -4c-2,-1 -4,-3 -5,-4 -10,-7 -19,-21 -22,-33 -3,-11 -3,-30 4,-37 6,-13 18,-26 33,-30 8,-6 24,-4 35,-2 22,10 35,18 41,44 3,12 1,24 -3,35 -5,11 -12,17 -20,23 -8,15 -8,-16 -8,46l0 164c9,-5 10,-10 17,-13 3,-5 -4,-1 5,-4 2,-8 13,-16 19,-22l9 -6c4,-10 0,-2 5,-6 1,-5 20,-21 23,-23l1 -8c-11,-12 -3,-48 24,-65 51,-33 112,32 78,81 -23,33 -50,25 -71,25 0,6 -20,24 -26,27 -3,8 -16,18 -23,25 -5,5 -4,5 -10,8 -3,6 -5,7 -10,12 -5,4 -7,7 -12,11l2 9c4,34 -14,56 -41,66 -16,3 -23,0 -36,0 -3,6 -2,4 -6,9 -6,6 -19,21 -26,24 -3,6 -2,4 -6,9 -6,6 -19,21 -26,24 -3,6 -4,6 -9,11 -4,4 -6,7 -10,10 3,5 4,5 6,10 7,4 10,7 14,14l15 13c3,4 2,2 4,6 7,4 10,7 14,14 7,3 11,10 18,16 13,10 12,6 24,11l15 0c8,-4 12,-3 20,-9 7,-6 8,-12 16,-13l20 -23c7,-9 15,-12 23,-20 8,-8 10,-15 19,-22 18,-13 89,-87 109,-106 8,-8 11,-16 19,-22 11,-9 14,-9 22,-21 8,-12 11,-11 21,-20 9,-8 12,-16 20,-23 9,-8 14,-9 22,-19 5,-7 4,-7 10,-12 5,-4 7,-5 12,-9l31 -34c3,-6 3,-11 6,-15l0 -15c-6,-12 -1,-12 -11,-24 -6,-7 -13,-12 -16,-18 -7,-4 -10,-7 -14,-14l-16 -14c-4,-4 -2,-2 -3,-5 -7,-4 -10,-7 -14,-14l-19 -19c-7,-4 -10,-7 -14,-14l-19 -19c-7,-4 -10,-7 -14,-14l-10 -9c-2,-2 -4,-3 -5,-5 -4,-4 -2,-2 -3,-5 -7,-4 -10,-7 -14,-14l-16 -14c-4,-4 -2,-2 -3,-5 -7,-4 -10,-7 -14,-14l-19 -19c-7,-4 -10,-7 -14,-14l-16 -14c-4,-4 -2,-2 -3,-5 -7,-4 -10,-7 -14,-14 -4,-2 -2,-1 -6,-4 -2,-2 -3,-3 -4,-4l-9 -10c-7,-4 -10,-7 -14,-14 -4,-2 -2,-1 -6,-4l-13 -15c-13,-7 -12,-15 -33,-27 -3,-1 -5,-3 -7,-4 -1,0 -3,-1 -3,-2l-3 -2 -22 0c-9,6 -13,4 -22,13 -3,3 -5,6 -9,9 -5,5 -4,6 -9,6z"/>
 </g>
</svg>
