<?xml version="1.0" encoding="UTF-8"?>
<!DOCTYPE svg PUBLIC "-//W3C//DTD SVG 1.1//EN" "http://www.w3.org/Graphics/SVG/1.1/DTD/svg11.dtd">
<!-- Creator: CorelDRAW 2017 -->
<svg xmlns="http://www.w3.org/2000/svg" xml:space="preserve" width="8.4666mm" height="8.4666mm" version="1.1" style="shape-rendering:geometricPrecision; text-rendering:geometricPrecision; image-rendering:optimizeQuality; fill-rule:evenodd; clip-rule:evenodd"
viewBox="0 0 847 847"
 xmlns:xlink="http://www.w3.org/1999/xlink">
 <defs>
  <style type="text/css">
   <![CDATA[
    .fil2 {fill:#52819E}
    .fil4 {fill:#55829E}
    .fil1 {fill:#5582A1}
    .fil3 {fill:#5984A3}
    .fil0 {fill:#E56E05}
    .fil5 {fill:#FCFDFA}
   ]]>
  </style>
 </defs>
 <g id="Camada_x0020_1">
  <metadata id="CorelCorpID_0Corel-Layer"/>
  <g id="_3050615662256">
   <path class="fil0" d="M360 743c0,9 0,10 -6,14 -4,3 -8,5 -13,7 -38,13 -47,-53 19,-41l0 20zm-66 -81c-1,6 1,10 2,16 12,0 72,-26 63,28 -20,1 -37,1 -52,9 -30,17 -29,65 10,69 27,3 36,-10 46,-14 8,10 -6,14 23,12 2,-12 1,-44 1,-58 0,-17 2,-39 -4,-53 -11,-22 -44,-20 -66,-16 -8,2 -13,5 -21,7z"/>
   <path class="fil0" d="M597 722c1,6 1,15 1,22 0,11 -2,10 -9,15 -5,3 -9,6 -16,6 -29,2 -27,-29 -15,-37 10,-6 26,-7 39,-6zm-63 -44c6,-1 6,-1 11,-3 3,-1 7,-1 10,-2 7,-2 18,-2 25,-1 16,3 19,15 17,33 -24,2 -34,-1 -53,9 -26,13 -26,47 -10,61 5,5 13,8 22,8 10,1 18,-1 26,-4 11,-5 15,-10 19,-11 3,4 2,6 2,12l20 0c1,-19 0,-39 0,-58 0,-18 2,-39 -5,-53 -16,-29 -78,-15 -88,-7 0,5 2,10 3,15z"/>
   <path class="fil0" d="M428 320c-5,-27 -79,-72 -21,-135 23,-25 84,-63 90,-112l0 0c2,-9 2,-24 0,-32 -2,-6 -7,-18 -11,-21 -1,20 7,28 -5,55 -33,73 -163,99 -113,180 9,14 50,60 60,64z"/>
   <path class="fil0" d="M445 703c-17,-53 -6,-52 -42,-49l34 113c5,14 1,14 11,14 8,0 17,0 25,0 11,-16 39,-105 39,-126 -37,-2 -24,-3 -31,29l-12 48c-2,5 -5,20 -9,22l-14 -50z"/>
   <path class="fil0" d="M213 812c1,3 6,10 9,12 9,8 30,-13 35,-20 13,-18 10,-42 10,-67l0 -118c0,-10 2,-10 -9,-10 -6,0 -13,-1 -19,1 -1,13 0,94 0,114 0,29 5,58 -11,76 -5,6 -11,8 -15,13z"/>
   <path class="fil1" d="M397 546c56,0 132,-4 183,-22 8,-3 15,-6 21,-10 8,-6 12,-15 0,-19 1,11 -2,13 -10,17 -6,3 -13,5 -20,7 -61,14 -180,17 -248,11 -22,-2 -102,-13 -42,-32 4,-1 8,-3 14,-4 4,-1 13,-1 16,-2 -14,-8 -53,5 -64,10 -26,12 -35,28 1,33 47,8 99,12 149,12z"/>
   <path class="fil0" d="M465 308c0,15 -9,23 -11,28 11,-3 39,-27 38,-52 -1,-23 -25,-37 -30,-59 -10,-41 64,-74 85,-91 -6,-3 -53,20 -58,22 -38,18 -73,54 -54,100 10,24 29,31 29,52z"/>
   <path class="fil1" d="M416 493c18,0 38,-1 54,-5 8,-2 16,-4 23,-6 4,-1 7,-2 11,-4 5,-2 7,-2 10,-5 -5,-3 -12,-5 -17,-8 -8,-4 -8,-7 -20,-5 -35,7 -80,10 -115,2 -10,-2 -14,-4 -10,-13 -15,2 -41,19 -1,34 19,7 43,10 66,10z"/>
   <path class="fil1" d="M539 346l-56 7c-25,4 -171,12 -175,-4 0,-5 5,-7 9,-10 17,-9 35,-10 45,-15 -6,-3 -39,4 -46,6 -14,4 -29,9 -40,15 -37,19 58,26 68,26 36,1 72,0 108,-2 14,-1 33,-4 47,-7 20,-4 17,-2 31,-10 4,-2 7,-3 9,-7z"/>
   <path class="fil2" d="M524 413c-8,-2 -11,-6 -17,-10 -6,-4 -9,-1 -23,1 -34,5 -67,9 -102,6 -17,-2 -35,0 -46,-10 0,-7 2,-7 3,-12 -21,4 -40,22 -9,33 38,14 94,11 133,7 10,-1 22,-3 32,-5 7,-1 24,-4 29,-9z"/>
   <path class="fil3" d="M425 564c-30,0 -79,-1 -108,-5 -4,-1 -6,-2 -9,-1 -4,1 0,-1 -3,2 24,5 28,7 57,10 59,5 136,4 193,-6 23,-4 77,-17 79,-41 -4,1 -5,4 -8,6 -18,12 -64,24 -85,26 -43,4 -67,10 -114,10z"/>
   <path class="fil4" d="M560 326c5,3 22,-10 41,9 10,10 13,24 5,40 -15,31 -54,44 -58,51 24,-3 71,-26 82,-55 18,-47 -52,-65 -71,-45z"/>
   <path class="fil5" d="M360 743l0 -20c-66,-12 -57,54 -19,41 5,-2 9,-4 13,-7 6,-4 6,-5 6,-14z"/>
   <path class="fil5" d="M597 722c-13,-1 -30,-1 -39,6 -13,8 -14,39 15,37 7,0 11,-3 16,-6 7,-4 9,-4 9,-15 0,-7 1,-16 -1,-22z"/>
  </g>
 </g>
</svg>
