<?xml version="1.0" encoding="UTF-8"?>
<!DOCTYPE svg PUBLIC "-//W3C//DTD SVG 1.1//EN" "http://www.w3.org/Graphics/SVG/1.1/DTD/svg11.dtd">
<!-- Creator: CorelDRAW 2017 -->
<svg xmlns="http://www.w3.org/2000/svg" xml:space="preserve" width="25.4mm" height="6.7732mm" version="1.1" style="shape-rendering:geometricPrecision; text-rendering:geometricPrecision; image-rendering:optimizeQuality; fill-rule:evenodd; clip-rule:evenodd"
viewBox="0 0 2540 677"
 xmlns:xlink="http://www.w3.org/1999/xlink">
 <defs>
  <style type="text/css">
   <![CDATA[
    .fil0 {fill:#22679E}
    .fil1 {fill:#E4BA37}
   ]]>
  </style>
 </defs>
 <g id="Camada_x0020_1">
  <metadata id="CorelCorpID_0Corel-Layer"/>
  <g id="_1809508939120">
   <path class="fil0" d="M2095 237l0 262c107,0 95,10 93,-85 0,-37 0,-74 0,-110 100,115 95,195 203,195 40,0 59,-20 59,-59l0 -271 -85 0 0 195c-50,-37 -117,-195 -169,-195 -41,0 -102,-3 -102,68z"/>
   <path class="fil0" d="M715 220l0 279 85 0 0 -195c87,58 83,195 212,195 40,0 59,-20 59,-59l0 -271 -85 0 0 195c-63,-42 -107,-195 -186,-195 -32,0 -85,6 -85,51z"/>
   <path class="fil0" d="M1782 229c0,322 -51,271 271,271 34,0 17,-5 17,-51 0,-28 40,-36 -85,-34 -66,1 -92,18 -93,-42 204,0 178,20 178,-76l-178 0c1,-57 -3,-42 178,-42l0 -85 -229 0c-40,0 -59,20 -59,59z"/>
   <path class="fil0" d="M1113 212l0 254c0,26 25,34 51,34l237 0 0 -85 -178 0c-1,-33 2,-20 -8,-42l178 0 0 -76 -169 0c1,-57 -3,-42 178,-42 0,-109 35,-85 -229,-85 -29,0 -59,15 -59,42z"/>
   <path class="fil0" d="M1596 322l-59 0 0 -59 102 0c8,36 8,59 -42,59zm-169 -110l0 288 110 0 0 -93c143,0 220,28 217,-126 -3,-138 -91,-111 -268,-111 -29,0 -59,15 -59,42z"/>
   <path class="fil0" d="M487 643c15,-17 13,-13 19,-40 52,-203 -150,-420 -358,-468 -19,28 -31,42 -43,77 -30,90 46,6 212,126 109,78 169,165 169,305z"/>
   <path class="fil1" d="M326 567c112,0 141,13 102,-68 -49,0 -120,27 -197,-48 -131,-126 3,-163 -142,-163 3,149 116,279 237,279z"/>
   <path class="fil1" d="M572 339c0,62 6,95 -17,144 60,-16 101,-173 67,-270 -27,-77 -106,-171 -202,-179 12,17 34,43 49,61 49,59 104,160 104,244z"/>
   <path class="fil0" d="M174 110c42,20 75,27 117,52 96,59 228,172 239,295l17 0c-9,-106 -54,-178 -101,-246 -35,-49 -154,-152 -195,-152 -30,0 -63,31 -76,51z"/>
  </g>
 </g>
</svg>
