<?xml version="1.0" encoding="UTF-8"?>
<!DOCTYPE svg PUBLIC "-//W3C//DTD SVG 1.1//EN" "http://www.w3.org/Graphics/SVG/1.1/DTD/svg11.dtd">
<!-- Creator: CorelDRAW 2017 -->
<svg xmlns="http://www.w3.org/2000/svg" xml:space="preserve" width="38.0998mm" height="33.8666mm" version="1.1" style="shape-rendering:geometricPrecision; text-rendering:geometricPrecision; image-rendering:optimizeQuality; fill-rule:evenodd; clip-rule:evenodd"
viewBox="0 0 3810 3387"
 xmlns:xlink="http://www.w3.org/1999/xlink"
 data-name="Layer 1">
 <defs>
  <style type="text/css">
   <![CDATA[
    .str1 {stroke:#ED3237;stroke-width:20}
    .str0 {stroke:#24285B;stroke-width:53.71;stroke-linecap:round;stroke-linejoin:round;stroke-dasharray:53.710000 268.550000}
    .fil5 {fill:none}
    .fil12 {fill:#ED3237}
    .fil6 {fill:#222D32}
    .fil11 {fill:#222D32}
    .fil10 {fill:#24285B}
    .fil2 {fill:#EFEFEF}
    .fil4 {fill:#F7F7F7}
    .fil7 {fill:#FFD200}
    .fil3 {fill:#CECECE;fill-opacity:0.368627}
    .fil1 {fill:#E6E6E6;fill-opacity:0.368627}
    .fil0 {fill:#E6E6E6;fill-opacity:0.450980}
    .fil8 {fill:#222D32;fill-opacity:0.580392}
    .fil9 {fill:#222D32;fill-opacity:0.729412}
   ]]>
  </style>
 </defs>
 <g id="Camada_x0020_1">
  <metadata id="CorelCorpID_0Corel-Layer"/>
  <g id="_3158381441120">
   <path class="fil0" d="M3395 3112c0,-83 -630,-150 -1407,-150 -777,0 -1407,67 -1407,150 0,83 630,150 1407,150 777,0 1407,-67 1407,-150z"/>
   <path class="fil1" d="M1083 1193c0,0 0,0 0,0 0,-76 -61,-137 -137,-137 -7,0 -15,1 -22,2 -32,-60 -95,-97 -163,-97l-7 0c4,-17 7,-35 7,-53 -3,-119 -100,-214 -220,-214 -119,0 -217,95 -220,214 0,18 2,36 7,53l-7 0c-2,0 -3,0 -5,0 -102,0 -185,83 -185,185 0,102 83,185 185,185 2,0 3,0 5,0l642 0 0 -1c68,-9 119,-67 119,-136l0 0z"/>
   <circle class="fil2" cx="1937" cy="1563" r="1202"/>
   <path class="fil3" d="M1049 776c0,0 11,173 130,122 119,-51 279,-108 262,82 -17,191 78,217 212,169 134,-48 69,-61 78,-234 9,-173 -217,-183 -182,-303 35,-121 305,23 211,-237 0,-1 -474,39 -711,402z"/>
   <path class="fil3" d="M2050 1228c0,0 0,0 -1,0 -25,0 -50,5 -72,16 -47,23 -105,77 -72,208 52,209 139,54 251,79 113,25 368,52 243,281 -126,230 17,277 139,221 121,-56 39,-282 165,-182 126,100 -19,414 288,293 0,0 352,-534 0,-1163 0,0 -160,-306 -285,-197 -126,108 47,114 65,239 17,124 -56,276 -156,136 -100,-140 -66,-127 -227,-145 -128,-14 -217,1 -219,110 -1,57 -47,102 -103,103l-13 1z"/>
   <path class="fil3" d="M2018 551c0,0 -125,-35 -123,117 2,152 84,143 175,104 91,-39 14,87 186,52 173,-35 186,-75 147,-136 -39,-60 -104,-289 -386,-137z"/>
   <path class="fil3" d="M736 1563c0,0 147,-240 307,-78 160,162 -155,136 7,292 162,156 274,-206 366,-68 92,138 270,231 60,352 -209,121 -84,290 12,254 96,-36 268,208 0,359 -1,0 -786,-286 -752,-1112z"/>
   <path class="fil3" d="M1992 1838c0,0 -165,0 -165,156 0,156 307,9 236,178 -72,169 97,215 190,144 93,-71 -68,-282 -52,-432 16,-150 -190,-115 -208,-46z"/>
   <path class="fil3" d="M1937 2764c0,0 -106,-112 125,-138 232,-26 237,-147 312,-199 75,-52 235,132 235,132 0,0 -296,266 -672,206z"/>
   <path class="fil4" d="M3682 2177c0,-69 -56,-124 -124,-124 -7,0 -13,1 -20,2 -29,-54 -86,-88 -148,-88 0,0 0,0 0,0l-6 0c4,-16 6,-32 6,-48 -3,-108 -91,-194 -199,-194 -108,0 -196,86 -199,194 0,16 2,33 6,48l-6 0c-93,0 -168,75 -168,168 0,93 75,168 168,168l582 0 0 -1c62,-8 108,-61 108,-123l0 0z"/>
   <polygon class="fil5 str0" points="1018,1447 1913,1504 2824,1204 1577,755 "/>
   <polyline class="fil5 str0" points="1018,1447 1222,2188 2352,2458 2824,1204 "/>
   <polyline class="fil5 str0" points="1222,2188 1893,1504 2352,2458 "/>
   <circle class="fil6" cx="2824" cy="1204" r="135"/>
   <circle class="fil6" cx="1222" cy="2188" r="135"/>
   <line class="fil5 str0" x1="1893" y1="1504" x2="1577" y2= "755" />
   <circle class="fil6" cx="2352" cy="2458" r="111"/>
   <circle class="fil6" cx="1018" cy="1447" r="111"/>
   <circle class="fil7" cx="1893" cy="1504" r="156"/>
   <circle class="fil6" cx="1577" cy="755" r="135"/>
   <path class="fil8" d="M838 2900c0,0 -149,-41 -181,-179 0,0 230,-47 237,191l-56 -12z"/>
   <path class="fil9" d="M856 2885c0,0 -104,-164 -12,-318 0,0 175,111 97,318l-85 0z"/>
   <path class="fil6" d="M883 2885c0,0 54,-173 221,-206 0,0 31,113 -108,207l-113 -1z"/>
   <polygon class="fil10" points="775,2882 805,3088 995,3089 1023,2883 "/>
  </g>
  <g id="_3158381435904">
   <g>
    <path class="fil11" d="M3073 750l127 127 127 -127c-70,-70 -184,-70 -254,0z"/>
    <path class="fil11" d="M2904 581l85 85c117,-117 306,-117 423,0l85 -85c-164,-164 -429,-164 -592,0z"/>
    <path class="fil11" d="M2735 412l85 85c145,-145 353,-190 537,-135 -10,-36 -5,-88 15,-120 -220,-59 -464,-2 -636,170z"/>
   </g>
   <path class="fil12 str1" d="M3488 198c85,0 154,69 154,154 0,85 -69,154 -154,154 -85,0 -154,-69 -154,-154 0,-85 69,-154 154,-154zm-82 233l57 -81 -54 -77 51 0 28 43 30 -43 49 0 -53 75 58 83 -51 0 -32 -49 -32 49 -49 0z"/>
  </g>
 </g>
</svg>
