<?xml version="1.0" encoding="UTF-8"?>
<!DOCTYPE svg PUBLIC "-//W3C//DTD SVG 1.1//EN" "http://www.w3.org/Graphics/SVG/1.1/DTD/svg11.dtd">
<!-- Creator: CorelDRAW 2017 -->
<svg xmlns="http://www.w3.org/2000/svg" xml:space="preserve" width="8.4666mm" height="8.4666mm" version="1.1" style="shape-rendering:geometricPrecision; text-rendering:geometricPrecision; image-rendering:optimizeQuality; fill-rule:evenodd; clip-rule:evenodd"
viewBox="0 0 847 847"
 xmlns:xlink="http://www.w3.org/1999/xlink">
 <defs>
  <style type="text/css">
   <![CDATA[
    .fil1 {fill:#232531}
    .fil2 {fill:#8892BD}
    .fil0 {fill:#8993BE}
   ]]>
  </style>
 </defs>
 <g id="Camada_x0020_1">
  <metadata id="CorelCorpID_0Corel-Layer"/>
  <g id="_3050608240016">
   <path class="fil0" d="M132 552c1,-9 4,-20 6,-29l39 -196c0,-2 0,-3 1,-3 21,0 41,0 62,0 19,0 41,-1 59,2 35,7 53,31 50,72 -4,52 -44,91 -91,94 -8,0 -56,0 -60,0 -1,0 -1,0 -1,0 -1,1 -11,53 -11,59l-53 0zm422 -228c10,0 21,0 31,0 10,0 21,0 31,0 19,0 42,-1 60,2 38,8 53,34 50,72 -3,38 -23,64 -45,79 -28,18 -46,16 -77,16 -3,0 -29,-1 -30,0 -1,1 -10,52 -11,59l-53 0 45 -228zm-171 -59l53 0 -11 59c5,1 13,0 18,0 18,0 36,-1 53,3 19,5 35,17 36,38 1,10 -3,23 -4,33 -1,8 -15,92 -16,95 -3,1 -51,0 -56,0 1,-7 3,-15 4,-22l12 -65c1,-7 3,-15 4,-22 3,-20 -14,-17 -34,-17 -7,0 -19,-1 -26,0 -1,2 -6,28 -6,32 -6,30 -13,62 -18,91 -1,3 0,3 -1,4l-53 0 45 -228zm-367 153l0 14c1,1 2,14 3,17 1,5 3,10 4,15 11,30 34,57 58,77 12,10 20,15 34,24 16,10 33,18 51,26 115,50 273,60 401,36 42,-8 84,-20 119,-35 42,-18 77,-39 105,-68 3,-3 6,-6 9,-10 3,-4 6,-7 9,-11 3,-4 5,-7 8,-12 8,-12 14,-26 17,-41l2 -12c0,-1 0,-1 0,-2 0,0 0,-1 0,-1l0 -1c0,0 0,0 0,0l0 -15c-1,-1 -2,-13 -3,-16 -1,-5 -2,-10 -4,-15 -21,-59 -81,-99 -137,-124 -33,-15 -74,-28 -113,-36 -33,-7 -64,-11 -98,-14 -5,0 -34,-1 -35,-2l-41 0c-1,1 -31,2 -36,2 -34,2 -65,7 -98,14 -56,11 -116,32 -162,62 -8,5 -15,10 -22,15 -2,1 -4,3 -5,4 -2,1 -3,3 -5,4l-8 6c-24,22 -44,49 -52,83 -1,3 -2,15 -2,16z"/>
   <path class="fil1" d="M599 367c4,-1 24,0 30,0 9,0 18,0 26,4 16,8 16,23 11,43 -11,42 -45,39 -81,38l14 -84zm-90 185l53 0c1,-6 10,-57 11,-59 1,-1 27,0 30,0 31,0 49,2 77,-16 22,-14 42,-41 45,-79 3,-38 -12,-64 -50,-72 -18,-4 -41,-2 -60,-2 -10,0 -21,0 -31,0 -10,0 -21,0 -31,0l-45 228z"/>
   <path class="fil1" d="M208 451l14 -84c3,0 25,0 30,0 10,0 18,0 26,4 16,7 16,23 11,43 -4,16 -11,27 -26,33 -7,3 -17,5 -25,5 -10,0 -20,0 -30,0zm-76 101l53 0c1,-6 11,-58 11,-59 0,0 0,0 1,0 3,0 52,0 60,0 46,-3 87,-42 91,-94 3,-41 -15,-65 -50,-72 -18,-4 -40,-2 -59,-2 -21,0 -41,0 -62,0 -1,0 -1,0 -1,3l-39 196c-2,9 -4,20 -6,29z"/>
   <path class="fil1" d="M338 493l53 0c1,0 1,0 1,-4 5,-30 12,-61 18,-91 1,-4 6,-30 6,-32 7,-1 18,0 26,0 20,0 37,-3 34,17 -1,7 -3,15 -4,22l-12 65c-1,7 -3,15 -4,22 6,0 54,0 56,0 1,-3 15,-87 16,-95 2,-10 5,-23 4,-33 -1,-21 -18,-33 -36,-38 -17,-4 -35,-3 -53,-3 -5,0 -13,0 -18,0l11 -59 -53 0 -45 228z"/>
   <path class="fil2" d="M585 451c36,0 71,4 81,-38 5,-20 5,-35 -11,-43 -8,-4 -17,-4 -26,-4 -5,0 -26,-1 -30,0l-14 84z"/>
   <path class="fil2" d="M208 451c10,0 20,0 30,0 8,0 18,-2 25,-5 15,-7 22,-18 26,-33 5,-20 5,-35 -11,-43 -8,-4 -17,-4 -26,-4 -5,0 -27,0 -30,0l-14 84z"/>
  </g>
 </g>
</svg>
