<?xml version="1.0" encoding="UTF-8"?>
<!DOCTYPE svg PUBLIC "-//W3C//DTD SVG 1.1//EN" "http://www.w3.org/Graphics/SVG/1.1/DTD/svg11.dtd">
<!-- Creator: CorelDRAW 2017 -->
<svg xmlns="http://www.w3.org/2000/svg" xml:space="preserve" width="8.4666mm" height="8.4666mm" version="1.1" style="shape-rendering:geometricPrecision; text-rendering:geometricPrecision; image-rendering:optimizeQuality; fill-rule:evenodd; clip-rule:evenodd"
viewBox="0 0 847 847"
 xmlns:xlink="http://www.w3.org/1999/xlink">
 <defs>
  <style type="text/css">
   <![CDATA[
    .fil0 {fill:#61D9FA}
   ]]>
  </style>
 </defs>
 <g id="Camada_x0020_1">
  <metadata id="CorelCorpID_0Corel-Layer"/>
  <g id="_3050600641440">
   <path class="fil0" d="M567 542c26,0 30,127 -17,127 -36,0 -78,-35 -102,-51 24,-46 48,-76 119,-76zm-271 127c-52,0 -32,-97 -25,-127 78,0 100,25 127,76 -24,16 -66,51 -102,51zm102 -110l51 0c-24,35 -27,35 -51,0zm135 -51l0 0zm-220 0l0 0zm220 0c7,-31 5,-27 25,-42 2,23 4,23 8,42l-34 0zm-220 0l-34 0c4,-19 7,-19 8,-42 21,15 18,12 25,42zm127 17c-82,0 -87,-22 -105,-56 -5,-9 -22,-37 -22,-37 0,-52 39,-68 51,-110l119 0c17,64 86,63 17,170 -12,18 -32,34 -60,34zm161 -34c-28,-58 -37,-67 0,-144 49,24 76,28 110,68 -21,40 -55,72 -110,76zm-466 -76c34,-40 61,-44 110,-68 16,68 46,47 0,144 -55,-5 -89,-36 -110,-76zm389 -85c23,2 23,4 42,8l-13 44c-10,-23 -19,-32 -29,-52zm-229 51l-18 -42c21,-5 21,-7 44,-9 -11,20 -20,29 -25,51zm152 -93l-51 0c24,-35 27,-35 51,0zm0 -59c79,-53 135,-99 135,34 0,23 -4,23 -8,42 -79,-7 -83,-10 -127,-76zm-178 76c-18,-76 -5,-64 0,-127 84,0 79,18 127,51 -44,66 -48,70 -127,76zm-42 -76l8 85c-44,21 -127,44 -131,103 -4,53 78,105 131,109 -4,49 -40,178 68,178 44,0 93,-46 119,-68 36,24 68,68 127,68 98,0 62,-139 59,-178 48,-4 128,-51 131,-103 3,-61 -85,-86 -131,-109 6,-74 39,-169 -76,-169 -34,0 -86,43 -110,59 -49,-33 -195,-130 -195,25z"/>
   <path class="fil0" d="M364 424c0,79 119,79 119,0 0,-81 -119,-81 -119,0z"/>
  </g>
 </g>
</svg>
