<?xml version="1.0" encoding="UTF-8"?>
<!DOCTYPE svg PUBLIC "-//W3C//DTD SVG 1.1//EN" "http://www.w3.org/Graphics/SVG/1.1/DTD/svg11.dtd">
<!-- Creator: CorelDRAW 2017 -->
<svg xmlns="http://www.w3.org/2000/svg" xml:space="preserve" width="8.4666mm" height="8.4666mm" version="1.1" style="shape-rendering:geometricPrecision; text-rendering:geometricPrecision; image-rendering:optimizeQuality; fill-rule:evenodd; clip-rule:evenodd"
viewBox="0 0 847 847"
 xmlns:xlink="http://www.w3.org/1999/xlink">
 <defs>
  <style type="text/css">
   <![CDATA[
    .fil0 {fill:#4A4A4A}
    .fil13 {fill:#BF5596}
    .fil4 {fill:#C15B95}
    .fil14 {fill:#CD69A7}
    .fil9 {fill:#CF6EA9}
    .fil7 {fill:#D370AC}
    .fil11 {fill:#D674B0}
    .fil17 {fill:#D874B1}
    .fil16 {fill:#DC79B5}
    .fil8 {fill:#EB84C3}
    .fil12 {fill:#FDBD3E}
    .fil15 {fill:#FEA9DD}
    .fil2 {fill:#FEC03F}
    .fil5 {fill:#FEC341}
    .fil6 {fill:#FECF4F}
    .fil3 {fill:#FED054}
    .fil10 {fill:#FED262}
    .fil1 {fill:#FED367}
   ]]>
  </style>
 </defs>
 <g id="Camada_x0020_1">
  <metadata id="CorelCorpID_0Corel-Layer"/>
  <g id="_3050599861536">
   <path class="fil0" d="M681 373c15,13 82,52 108,69 9,6 11,7 16,13 -30,15 -101,67 -125,76l10 19 135 -82c2,-39 2,-26 -64,-68 -18,-11 -55,-37 -74,-43l-6 16z"/>
   <path class="fil0" d="M21 445l0 26c16,12 124,80 135,82l10 -13c-4,-4 -1,-2 -6,-6l-119 -75c13,-18 100,-60 125,-82l-9 -17 -136 84z"/>
   <path class="fil1" d="M494 529l-3 4c-15,11 -19,0 -36,7 -6,2 -16,14 -21,19 -10,10 -35,31 -41,41 83,2 86,8 129,-52 11,-15 16,-29 11,-47 -11,7 -14,8 -21,16 -9,9 -6,8 -18,13z"/>
   <path class="fil2" d="M267 561c0,7 0,19 0,25 2,17 -2,9 6,13l38 -34c27,-27 98,-86 111,-102l15 3c-5,-8 -9,-15 -10,-29 -19,4 -8,3 -23,15l-136 109z"/>
   <path class="fil1" d="M462 469c-4,2 -2,2 -11,4 -43,8 1,-19 -57,31 -20,17 -40,34 -47,59 25,-3 50,-20 68,-34 12,-10 45,-37 58,-41 8,-5 8,-7 17,-14 6,-5 12,-10 17,-14l0 -25 -45 35z"/>
   <path class="fil3" d="M273 600l65 0c9,-18 40,-37 59,-52l60 -47c12,-4 11,-6 17,-14 -13,5 -46,32 -58,41 -18,14 -43,32 -68,34 8,-25 28,-42 47,-59 58,-50 14,-22 57,-31 9,-2 6,-2 11,-4l-22 -2 -4 -1 -15 -3c-13,16 -84,75 -111,102l-38 34z"/>
   <path class="fil4" d="M548 402c-5,19 -9,12 -16,32 -5,15 1,8 -8,16 -4,3 -11,6 -17,9 -5,4 -11,9 -17,14 -9,7 -9,10 -17,14 -6,8 -5,11 -17,14 -1,24 13,37 35,32l3 -4c-63,-10 2,-46 22,-62 14,-11 7,-5 5,-9 -9,3 -11,12 -14,20 20,2 23,7 38,-6l3 -3c-7,-16 9,-1 -10,-11 -9,15 -1,-1 -11,11 7,-6 8,-17 11,-29 7,-31 12,-23 19,-24 4,6 1,-2 4,10l1 7c0,0 0,1 1,2 4,-10 10,-45 15,-61 6,-19 11,-42 19,-59l22 -2 0 -55c-2,-17 3,-10 -7,-14 -3,8 -13,48 -14,58l-19 2c15,11 8,5 -2,49 -5,19 -10,34 -13,54l-18 -7z"/>
   <path class="fil5" d="M338 600l56 0c6,-10 31,-31 41,-41 5,-5 15,-17 21,-19 17,-7 21,4 36,-7 -22,5 -36,-8 -35,-32l-60 47c-19,15 -50,34 -59,52z"/>
   <path class="fil6" d="M297 517c10,-27 42,-43 57,-67l37 9c-1,1 -2,2 -2,3 -1,1 -1,2 -2,3l-18 16c-17,12 -51,36 -72,37zm128 -101c-1,4 1,1 -3,6 -5,5 0,1 -6,3 -6,13 -6,11 -18,16 -12,11 -24,5 -34,1 -29,-4 -32,17 -48,29 -18,13 -38,30 -47,32l0 58 136 -109c15,-11 4,-11 23,-15l12 -13 0 -9 -12 1z"/>
   <path class="fil7" d="M440 468l22 2 45 -35c4,-14 7,-10 12,-23 -6,-5 -4,6 -4,-13 0,-5 2,-8 2,-13 -20,-2 -44,23 -57,32 -19,14 -27,22 -21,36 0,0 7,9 1,14z"/>
   <path class="fil8" d="M569 302c1,13 -14,81 -21,100l18 7c3,-19 8,-35 13,-54 10,-44 17,-38 2,-49l19 -2c1,-10 11,-50 14,-58l-16 0 -14 55 -16 1z"/>
   <path class="fil9" d="M494 529c12,-5 9,-4 18,-13 8,-7 10,-9 21,-16l12 -28c-16,13 -18,8 -38,6 3,-8 5,-17 14,-20 2,4 8,-2 -5,9 -21,16 -85,52 -22,62z"/>
   <path class="fil10" d="M297 517c21,-2 55,-25 72,-37l18 -16c1,-1 2,-2 2,-3 1,-1 1,-2 2,-3l-37 -9c-15,24 -47,40 -57,67z"/>
   <path class="fil11" d="M415 425c6,-2 1,2 6,-3 4,-4 2,-2 3,-6l8 -31c1,-3 4,-10 6,-14 -21,4 -64,32 -69,59 1,1 3,0 3,1 1,1 3,1 3,1 1,0 2,0 3,1 1,0 2,0 2,0 18,1 16,-7 33,-8z"/>
   <path class="fil12" d="M267 503c9,-2 29,-20 47,-32 16,-11 19,-33 48,-29 -3,-8 -7,-14 -7,-25 -18,10 -26,23 -43,35 -12,9 -37,30 -46,34l0 17z"/>
   <path class="fil13" d="M438 424l-12 13c1,14 6,21 10,29l4 1c6,-5 -1,-14 -1,-14 -6,-14 2,-22 21,-36 12,-9 37,-34 57,-32 -1,6 -2,8 -2,13 0,18 -2,8 4,13 7,-12 8,-16 6,-30 -19,-12 -28,-2 -45,10 -16,12 -27,21 -42,33z"/>
   <path class="fil14" d="M397 441c12,-5 12,-3 18,-16 -17,1 -16,10 -33,8 -1,0 -2,0 -2,0 -1,0 -2,0 -3,-1 -1,0 -3,0 -3,-1 -1,-1 -2,-1 -3,-1 4,-27 48,-54 69,-59 -2,4 -5,11 -6,14l-8 31 12 -1c0,-16 1,-8 8,-23 -6,-7 -1,8 -2,-6 -1,-11 3,-4 1,-23 -22,-1 -61,34 -73,49 -9,10 -10,33 27,28z"/>
   <path class="fil13" d="M356 417c0,11 4,17 7,25 10,4 22,11 34,-1 -37,5 -36,-18 -27,-28 13,-14 51,-49 73,-49 3,18 -2,11 -1,23 2,14 -3,-2 2,6l8 -22c-5,-41 -71,19 -78,26 -9,10 -10,12 -19,20z"/>
   <path class="fil15" d="M569 302l16 -1 14 -55 -27 0c-1,10 -3,17 -6,28 -4,17 -7,14 3,28z"/>
   <path class="fil16" d="M569 302c-10,-14 -6,-11 -3,-28 2,-11 4,-18 6,-28l-14 0c-7,14 -11,30 -12,45 16,7 5,10 23,10z"/>
   <path class="fil17" d="M549 470c3,-19 9,-15 15,-34 0,-1 0,-2 -1,-2l-1 -7c-3,-12 1,-4 -4,-10 -7,1 -12,-8 -19,24 -3,12 -4,23 -11,29 10,-12 1,4 11,-11 19,10 3,-4 10,11z"/>
  </g>
 </g>
</svg>
